ply
format ascii 1.0
comment VCGLIB generated
element vertex 20
property float x
property float y
property float z
property float nx
property float ny
property float nz
element face 36
property list uchar int vertex_indices
end_header
-0.00154509 -0.00154509 0.00154509 -0.724617 -0.362308 0.586227 
0.0025 0.000954915 0 0.934172 0.356822 7.1336e-09 
0.0025 -0.000954915 0 0.760398 -0.649457 0 
-0.0025 0.000954915 0 -0.934172 0.356822 -7.1336e-09 
-0.0025 -0.000954915 0 -0.760398 -0.649457 0 
0 0.0025 0.000954915 -8.71259e-09 0.900042 0.435803 
0 0.0025 -0.000954915 -8.71259e-09 0.900042 -0.435803 
0.000954915 0 -0.0025 0.31535 -0.0744441 -0.946051 
-0.000954915 0 -0.0025 -0.440828 0.168381 -0.881657 
0 -0.0025 -0.000954915 9.85839e-09 -0.934172 -0.356822 
0 -0.0025 0.000954915 8.71259e-09 -0.900042 0.435803 
0.000954915 0 0.0025 0.356822 9.85839e-09 0.934172 
-0.000954915 0 0.0025 -0.356822 9.85839e-09 0.934172 
0.00154509 0.00154509 -0.00154509 0.57735 0.57735 -0.57735 
0.00154509 0.00154509 0.00154509 0.57735 0.57735 0.57735 
-0.00154509 0.00154509 -0.00154509 -0.57735 0.57735 -0.57735 
-0.00154509 0.00154509 0.00154509 -0.57735 0.57735 0.57735 
0.00154509 -0.00154509 -0.00154509 0.724617 -0.362308 -0.586227 
0.00154509 -0.00154509 0.00154509 0.724617 -0.362309 0.586228 
-0.00154509 -0.00154509 -0.00154509 -0.544894 -0.440828 -0.713275 
3 2 1 18 
3 18 1 11 
3 11 1 14 
3 13 1 7 
3 7 1 17 
3 17 1 2 
3 4 3 19 
3 19 3 8 
3 8 3 15 
3 16 3 12 
3 12 3 0 
3 0 3 4 
3 15 3 6 
3 6 3 5 
3 5 3 16 
3 14 1 5 
3 5 1 6 
3 6 1 13 
3 17 2 9 
3 9 2 10 
3 10 2 18 
3 0 4 10 
3 10 4 9 
3 9 4 19 
3 8 7 19 
3 19 7 9 
3 9 7 17 
3 15 6 8 
3 8 6 7 
3 7 6 13 
3 14 5 11 
3 11 5 12 
3 12 5 16 
3 0 10 12 
3 12 10 11 
3 11 10 18 
