ply
format ascii 1.0
comment VCGLIB generated
element vertex 9
property float x
property float y
property float z
property float nx
property float ny
property float nz
element face 14
property list uchar int vertex_indices
end_header
-0.0364562 0.0404248 -0.099794 0.435329 1.76636 -2.93436 
-0.319765 -0.0541288 -0.00352296 -2.61824 -0.472172 -0.882009 
-0.140602 -0.292667 -0.00344454 -1.36842 -2.38477 -1.03415 
0.297328 -0.268085 0.022283 1.46802 -0.846783 -0.446135 
-0.23759 0.211169 0.153952 -0.380676 1.13973 0.653507 
-0.162337 0.186323 0.00976156 0.44371 2.2619 -0.951774 
0.211406 0.0785444 0.0687889 1.39255 1.72854 0.131007 
0.0905863 -0.278727 0.25299 0.524117 -1.59259 2.29389 
-0.134338 -0.0485678 0.244252 -1.04613 0.477681 3.37229 
3 1 5 0 
3 5 1 4 
3 5 8 0 
3 4 8 5 
3 4 1 8 
3 8 1 2 
3 8 2 7 
3 7 3 6 
3 0 8 6 
3 6 8 7 
3 0 6 3 
3 0 2 1 
3 0 3 2 
3 2 3 7 
