ply
format ascii 1.0
comment VCGLIB generated
element vertex 24
property float x
property float y
property float z
property float nx
property float ny
property float nz
element face 8
property list uchar int vertex_indices
end_header
0 0 -1 0.57735 0.57735 -0.57735 
1 0 0 0.57735 0.57735 -0.57735 
0 1 0 0.57735 0.57735 -0.57735 
0 0 -1 -0.57735 0.57735 -0.57735 
0 1 0 -0.57735 0.57735 -0.57735 
-1 0 0 -0.57735 0.57735 -0.57735 
0 0 -1 -0.57735 -0.57735 -0.57735 
-1 0 0 -0.57735 -0.57735 -0.57735 
0 -1 0 -0.57735 -0.57735 -0.57735 
0 0 -1 0.57735 -0.57735 -0.57735 
0 -1 0 0.57735 -0.57735 -0.57735 
1 0 0 0.57735 -0.57735 -0.57735 
0 0 1 0.57735 0.57735 0.57735 
0 1 0 0.57735 0.57735 0.57735 
1 0 0 0.57735 0.57735 0.57735 
0 0 1 -0.57735 0.57735 0.57735 
-1 0 0 -0.57735 0.57735 0.57735 
0 1 0 -0.57735 0.57735 0.57735 
0 0 1 -0.57735 -0.57735 0.57735 
0 -1 0 -0.57735 -0.57735 0.57735 
-1 0 0 -0.57735 -0.57735 0.57735 
0 0 1 0.57735 -0.57735 0.57735 
1 0 0 0.57735 -0.57735 0.57735 
0 -1 0 0.57735 -0.57735 0.57735 
3 1 0 2 
3 4 3 5 
3 7 6 8 
3 10 9 11 
3 13 12 14 
3 16 15 17 
3 19 18 20 
3 22 21 23 
